<?xml version="1.0" encoding="utf-8"?>
<!-- Generator: Adobe Illustrator 23.0.1, SVG Export Plug-In . SVG Version: 6.00 Build 0)  -->
<svg version="1.1" id="Layer_1" xmlns="http://www.w3.org/2000/svg" xmlns:xlink="http://www.w3.org/1999/xlink" x="0px" y="0px"
	 viewBox="0 0 76.25532 17.91489" style="enable-background:new 0 0 76.25532 17.91489;" xml:space="preserve">
<style type="text/css">
	.st0{fill-rule:evenodd;clip-rule:evenodd;fill:#231F20;}
	.st1{fill:#231F20;}
	.st2{fill-rule:evenodd;clip-rule:evenodd;fill:#FFFFFF;}
</style>
<g id="logo_2_">
	<g id="XMLID_53_">
		<path id="XMLID_91_" class="st0" d="M23.93961,8.8023c1.25832,0.11329,2.06,0,3.43225-0.57395
			c2.11808-0.91613,3.60641-3.14639,3.26364-4.57834c-0.17194-0.74361-1.03169-0.97193-1.7753-1.03059
			c-0.68554-0.05696-1.43026-0.11276-2.57699-0.05696L23.93961,8.8023L23.93961,8.8023z M0.19207,10.68862h4.23271l5.6653-6.63665
			l1.43032,6.63665h13.27669c2.53606,0,4.46278-0.11329,5.95344-0.68437c2.1716-0.7453,3.89111-1.94783,4.92053-3.95093
			c1.08527-1.94608,0.97368-3.31774,0.2289-4.40692c-0.74361-1.02948-2.46085-1.37394-4.86473-1.37394
			c-2.39939,0-11.15867,0-11.15867,0l0.34505,2.17504l-2.74899,7.55675l-2.00193-9.68853c0,0-3.36841-0.03358-4.17919,0
			c-0.81078,0.03078-1.63753,0.25625-2.57471,1.2589L0.19207,10.68862L0.19207,10.68862z"/>
		<polygon id="XMLID_90_" class="st0" points="34.98324,10.68862 41.20203,10.68862 45.10794,0.27245 38.94612,0.27245 
			35.03222,10.68862 		"/>
		<path id="XMLID_89_" class="st0" d="M42.68919,10.68862l3.64174-9.54959l0.23345-0.86658h12.14255
			c2.49385,0,3.65538,1.93302,1.96777,3.87519l-2.20005,2.31223l1.62156,3.0661l0.69464,1.16264h-6.70953l-1.84935-4.40185
			l3.58484-3.93151l-3.70098,0.11614l-3.18166,8.21722H42.68919L42.68919,10.68862z"/>
		<path id="XMLID_72_" class="st0" d="M58.01458,10.68862h4.3671l5.88284-6.87179l1.3961,6.87179h6.23243l-2.22401-10.3655h-4.2407
			c-0.75387,0-1.64324,0.17311-2.62258,1.16439L58.01458,10.68862L58.01458,10.68862z"/>
		<g id="XMLID_55_">
			<path id="XMLID_70_" class="st1" d="M20.6509,13.57427V14.311h-1.92223v0.91899h1.66604v0.68099h-1.66604v1.64266h-0.87456
				v-3.97938H20.6509z"/>
			<path id="XMLID_68_" class="st1" d="M27.67702,13.57427v3.97938h-0.87456v-3.97938H27.67702z"/>
			<path id="XMLID_66_" class="st1" d="M34.95934,13.57427l1.66144,2.66981h0.01026v-2.66981h0.81993v3.97938H36.5764
				l-1.65578-2.66299h-0.01026v2.66299h-0.81987v-3.97938H34.95934z"/>
			<path id="XMLID_62_" class="st1" d="M45.84812,13.57427l1.48722,3.97938h-0.90873l-0.29951-0.8871h-1.48833l-0.31204,0.8871
				h-0.88022l1.50425-3.97938H45.84812z M45.8982,16.01459l-0.50101-1.45871h-0.01254l-0.51815,1.45871H45.8982z"/>
			<path id="XMLID_60_" class="st1" d="M54.19407,13.57427l1.66027,2.66981h0.01143v-2.66981h0.81987v3.97938h-0.87456
				l-1.65572-2.66299H54.1451v2.66299h-0.81993v-3.97938H54.19407z"/>
			<path id="XMLID_58_" class="st1" d="M65.64992,14.63669c-0.05125-0.08367-0.11614-0.15713-0.19357-0.21975
				c-0.07743-0.06378-0.16628-0.11276-0.26651-0.14803c-0.09789-0.03475-0.20039-0.053-0.30744-0.053
				c-0.19811,0-0.36556,0.03761-0.50217,0.11503c-0.13783,0.07574-0.24942,0.17707-0.33484,0.30575
				c-0.08536,0.12868-0.14803,0.27391-0.18675,0.43728c-0.03871,0.16343-0.05807,0.33251-0.05807,0.50789
				c0,0.16628,0.01936,0.32913,0.05807,0.48684c0.03872,0.1583,0.10139,0.30003,0.18675,0.42644
				c0.08542,0.1264,0.19701,0.22721,0.33484,0.30406c0.13661,0.07574,0.30406,0.11387,0.50217,0.11387
				c0.26646,0,0.476-0.08256,0.6263-0.24651c0.15031-0.16226,0.24255-0.37752,0.2756-0.64514h0.84722
				c-0.0228,0.24826-0.0797,0.47372-0.1731,0.67417c-0.09335,0.20039-0.21637,0.37181-0.36778,0.51244
				c-0.15264,0.14121-0.33024,0.24937-0.53413,0.32283c-0.20494,0.07516-0.4293,0.1116-0.67412,0.1116
				c-0.30516,0-0.5796-0.05236-0.82331-0.15888c-0.24255-0.10588-0.44865-0.25164-0.61493-0.43612
				c-0.16739-0.18564-0.29607-0.40428-0.38376-0.65534c-0.08997-0.25112-0.13439-0.52211-0.13439-0.81025
				c0-0.29776,0.04443-0.57395,0.13439-0.82903c0.08769-0.2545,0.21637-0.47483,0.38376-0.66502
				c0.16628-0.18902,0.37239-0.33822,0.61493-0.44579c0.24371-0.10763,0.51815-0.16115,0.82331-0.16115
				c0.21864,0,0.42475,0.03189,0.62059,0.0934c0.19474,0.06373,0.37012,0.15655,0.52386,0.27671
				c0.15375,0.12186,0.28126,0.26989,0.38148,0.44923c0.10023,0.17818,0.16396,0.38148,0.19019,0.61266h-0.84727
				C65.73534,14.81323,65.70345,14.72099,65.64992,14.63669z"/>
			<path id="XMLID_56_" class="st1" d="M75.84634,13.57427V14.311h-2.09988v0.85182h1.92905v0.67983h-1.92905v0.9759h2.14658v0.7351
				h-3.01998v-3.97938H75.84634z"/>
		</g>
		<polygon id="XMLID_54_" class="st2" points="8.55505,5.85176 4.77898,10.27413 18.61707,5.85176 		"/>
	</g>
</g>
</svg>
